# xmcd
#
# Track frame offsets:
#	150
#	25665
#	39200
#	55760
#	73555
#	85553
#	108660
#	125465
#	138200
#	151775
#	163930
#	178388
#	190063
#
# Disc length: 2911 seconds
#
# Revision: 2
# Processed by: cddbd v1.5.1PL0 Copyright (c) Steve Scherf et al.
# Submitted via: EasyCDDAExtractor 7.0.6.1
#
DISCID=a20b5d0d
DTITLE=Cadillac Tramps - Tombstone Radio
DYEAR=1992
DGENRE=Blues
TTITLE0=Intro/Hoodoo Guru
TTITLE1=Shake!
TTITLE2=Veince
TTITLE3=Move to the hills
TTITLE4=Drivin'
TTITLE5=Killin' floor
TTITLE6=Cadillac hearse
TTITLE7=Lookin' for some strange
TTITLE8=Graveyard blues
TTITLE9=Confidence
TTITLE10=Miles away
TTITLE11=Bonedry
TTITLE12=(Carry my soul to) the river
EXTD=
EXTT0=
EXTT1=
EXTT2=
EXTT3=
EXTT4=
EXTT5=
EXTT6=
EXTT7=
EXTT8=
EXTT9=
EXTT10=
EXTT11=
EXTT12=
PLAYORDER=
